<?xml version="1.0" standalone="no"?>
<!DOCTYPE svg PUBLIC "-//W3C//DTD SVG 20010904//EN"
 "http://www.w3.org/TR/2001/REC-SVG-20010904/DTD/svg10.dtd">
<svg version="1.0" xmlns="http://www.w3.org/2000/svg"
 width="500.000000pt" height="500.000000pt" viewBox="0 0 500.000000 500.000000"
 preserveAspectRatio="xMidYMid meet">
<metadata>
Created by potrace 1.14, written by Peter Selinger 2001-2017
</metadata>
<g transform="translate(0.000000,500.000000) scale(0.100000,-0.100000)"
fill="#000000" stroke="none">
<path d="M2582 4299 c-521 -50 -962 -299 -1254 -710 -78 -108 -203 -353 -248
-483 -72 -210 -105 -492 -81 -706 50 -453 196 -775 481 -1061 321 -322 767
-509 1215 -509 115 0 323 24 439 51 117 28 292 88 391 135 63 30 80 43 91 70
11 27 14 122 14 494 0 253 -4 460 -8 460 -14 0 -37 -23 -126 -128 -241 -281
-487 -406 -801 -405 -101 0 -148 5 -210 22 -332 89 -570 348 -671 730 -20 72
-27 131 -31 236 -9 235 23 402 111 580 130 262 333 431 602 501 83 22 122 27
244 27 198 2 321 -31 484 -127 77 -45 276 -234 346 -328 23 -32 49 -58 56 -58
12 0 14 76 14 466 0 560 9 517 -125 580 -289 135 -623 193 -933 163z"/>
</g>
</svg>
