<svg display="none" xmlns="http://www.w3.org/2000/svg">
    <symbol id="logo" viewBox="0 0 143 46" fill="none" xmlns="http://www.w3.org/2000/svg">
        <g clip-path="url(#clip0)">
            <path d="M69.209 10.1243C69.209 9.54661 69.209 8.96895 69.209 8.42169C69.209 7.87443 69.209 7.81363 69.808 7.81363C71.0957 7.81363 72.4134 7.81363 73.7011 7.81363C74.1504 7.81363 74.1504 7.81363 74.1504 8.26968C74.1504 8.36088 74.1504 8.45209 74.1504 8.5433V28.5182C74.1504 29.2783 74.2103 29.2175 73.4316 29.2175C72.1738 29.2175 70.916 29.2175 69.6582 29.2175C69.209 29.2175 69.209 29.2175 69.209 28.7918C69.209 28.275 69.209 27.7581 69.209 27.2109C68.9694 27.2717 68.7298 27.4237 68.5801 27.6061C64.5971 30.9808 58.6974 30.464 55.3432 26.4508C54.9839 26.0251 54.6544 25.5387 54.3849 25.0522C53.4865 23.5321 52.9474 21.7991 52.7977 20.0357C52.5282 17.9379 52.7677 15.8401 53.5164 13.8639C54.6245 10.9756 56.5411 8.78653 59.476 7.78322C62.9499 6.5975 66.0645 7.29677 68.7598 9.82024C68.8796 9.94185 68.9694 10.0939 69.209 10.1243ZM69.5384 18.6068C69.5684 17.5122 69.3887 16.3873 68.9694 15.384C67.8314 12.4045 64.5372 10.9148 61.6023 12.0701C61.3627 12.1613 61.1231 12.2829 60.8836 12.4045C59.2664 13.3166 58.338 14.776 57.9187 16.6001C57.7091 17.573 57.6492 18.6068 57.7989 19.6101C57.9786 21.1606 58.4877 22.5288 59.5659 23.6537C60.9135 25.0826 62.5606 25.5691 64.4773 25.2955C66.5437 24.9914 67.9512 23.8361 68.8496 22.0119C69.3587 20.9782 69.5983 19.7925 69.5384 18.6068Z"
                  fill="#0C0C0C"/>
            <path d="M43.9033 19.7013H37.0153C36.4164 19.7013 36.3864 19.7013 36.4763 20.3093C36.7757 22.3463 37.6442 24.0185 39.5309 24.9306C41.5374 25.8731 44.3525 25.6603 46.0295 23.4104C46.4488 22.8328 46.898 22.2551 47.2873 21.6471C47.5269 21.2822 47.5269 21.2822 47.8863 21.495C48.9944 22.1335 50.1324 22.7416 51.2404 23.38C51.6298 23.5929 51.6597 23.6233 51.4201 23.9881C50.1923 26.0555 48.6649 27.8189 46.4488 28.883C45.3108 29.3999 44.083 29.7039 42.8252 29.7951C41.4176 29.9471 39.9801 29.8255 38.6025 29.4607C35.5179 28.6094 33.4216 26.6332 32.1937 23.6841C31.3253 21.5558 31.1456 19.306 31.3552 16.9954C31.445 15.6576 31.7745 14.3503 32.2836 13.1342C33.6612 10.0026 35.9671 8.05683 39.3213 7.41837C41.3278 7.02313 43.4241 7.17514 45.3707 7.90482C47.3772 8.63449 49.0543 10.0938 50.0425 12.0092C50.7613 13.3774 51.2105 14.8975 51.3902 16.4481C51.48 17.3602 51.51 18.2723 51.48 19.1844C51.48 19.7012 51.48 19.7013 50.941 19.7013H43.9033ZM36.7158 15.688H46.0894C46.329 15.688 46.4488 15.5968 46.359 15.3232C45.9697 14.0159 45.3108 12.9213 44.0829 12.2829C42.7054 11.5532 41.0882 11.462 39.6806 12.0701C38.1234 12.7389 37.165 13.955 36.7158 15.688Z"
                  fill="#0C0C0C"/>
            <path d="M98.3781 19.7012H91.4901C90.7714 19.7012 90.8014 19.7012 90.9211 20.4613C91.0709 21.4342 91.4303 22.3767 91.9693 23.1975C92.7479 24.3529 94.0057 25.1129 95.3534 25.3258C96.3716 25.5082 97.3898 25.417 98.3481 25.0521C99.3963 24.6873 100.085 23.8664 100.744 23.0455C101.133 22.5895 101.493 22.103 101.822 21.5862C101.972 21.3429 102.092 21.3429 102.331 21.4646C103.499 22.1334 104.667 22.8023 105.805 23.4408C106.015 23.5624 106.135 23.6536 105.955 23.9272C104.907 25.6298 103.709 27.1804 102.032 28.2749C100.624 29.187 98.977 29.7038 97.3299 29.795C96.0721 29.9166 94.7844 29.8254 93.5266 29.5518C90.6816 28.9437 88.5553 27.2716 87.1477 24.7177C86.2493 23.0759 85.7701 21.2213 85.7701 19.3667C85.7402 17.7554 85.7701 16.1136 86.2493 14.563C87.0579 11.7355 88.6751 9.54652 91.3105 8.23918C92.3586 7.72233 93.4966 7.41829 94.6646 7.32708C96.162 7.14466 97.6594 7.26628 99.1268 7.69192C101.403 8.29999 103.349 9.85055 104.487 11.9484C105.326 13.4989 105.835 15.2319 105.925 17.0257C105.985 17.7554 106.015 18.485 106.015 19.1843C106.015 19.7316 106.015 19.7316 105.476 19.7316L98.3781 19.7012ZM95.9823 15.688H100.265C100.385 15.688 100.534 15.688 100.654 15.688C100.774 15.688 100.894 15.5967 100.834 15.4143C100.534 14.3806 100.055 13.4077 99.1867 12.7388C97.8091 11.6747 96.2219 11.4619 94.6047 11.918C92.9875 12.374 91.8795 13.5293 91.2805 15.1407C91.1008 15.6272 91.1308 15.688 91.6099 15.688C93.1073 15.688 94.5448 15.688 95.9823 15.688Z"
                  fill="#0C0C0C"/>
            <path d="M120.3 18.4243C120.21 15.9312 120.989 13.499 122.546 11.5836C124.373 9.27293 126.708 7.81358 129.613 7.35753C132.099 6.99269 134.495 7.26632 136.741 8.45205C140.005 10.185 142.042 12.9213 142.641 16.6305C143.09 19.4276 142.671 22.1031 141.143 24.5353C139.616 27.0892 137.13 28.883 134.255 29.5214C131.68 30.1599 128.955 29.9167 126.559 28.7918C125.78 28.4269 125.061 27.9709 124.432 27.4236C122.246 25.569 120.839 23.2584 120.419 20.3701C120.33 19.7316 120.33 19.0932 120.3 18.4243ZM131.5 25.417C131.889 25.417 132.249 25.3866 132.638 25.3258C135.064 25.0218 136.831 23.2584 137.46 20.9782C137.849 19.5492 137.879 18.029 137.55 16.5697C137.22 14.8975 136.232 13.4382 134.764 12.5565C133.507 11.8268 132.039 11.5532 130.572 11.766C128.026 12.1004 126.409 13.5598 125.6 15.9616C125.121 17.4818 125.091 19.0932 125.481 20.6437C125.72 21.7078 126.199 22.7111 126.948 23.5016C128.176 24.8698 129.733 25.3866 131.5 25.417Z"
                  fill="#0C0C0C"/>
            <path d="M17.3995 21.9815V27.2412C17.3995 28.3661 17.3995 28.3661 16.3514 28.7918C15.0636 29.339 13.716 29.6735 12.3384 29.7951C9.61316 29.9775 7.06761 29.4302 4.79159 27.8493C2.24604 26.1163 0.658815 23.684 0.179653 20.5829C-0.239614 18.0899 0.0299149 15.6272 1.25777 13.3774C2.93484 10.2762 5.48039 8.23923 8.92437 7.50956C11.6197 6.90149 14.4647 7.26633 16.9503 8.48246C17.2798 8.60407 17.4894 8.9081 17.4295 9.27294C17.3995 11.0971 17.4295 12.9213 17.4295 14.7759C17.4594 14.9279 17.4295 15.0495 17.3696 15.2016C17.1899 15.1408 17.1001 14.9583 16.9803 14.8367C16.4113 14.1374 15.7524 13.499 15.0337 12.9517C13.7759 12.0092 12.2186 11.614 10.6913 11.8268C9.22384 11.9484 7.84625 12.6477 6.82803 13.7422C5.83976 14.8367 5.24081 16.2049 5.09107 17.6946C4.88143 19.2452 5.15096 20.8261 5.86971 22.2247C6.73819 23.9577 8.38531 25.1434 10.272 25.3866C11.8892 25.6602 13.5363 25.2954 14.8839 24.3529C15.5428 23.8969 16.1118 23.3496 16.6209 22.7415C16.8305 22.4983 17.0701 22.2247 17.2798 21.9815H17.3995Z"
                  fill="#0C0C0C"/>
            <path d="M82.2962 20.8566V28.579C82.2962 29.2479 82.3261 29.2174 81.6972 29.2174H78.0735C77.3848 29.2174 77.4147 29.2783 77.4147 28.579V16.965C77.4147 15.6576 77.4147 14.3199 77.4147 13.0126C77.4147 12.4957 77.4147 12.4957 76.8756 12.4653C76.4564 12.4653 76.0371 12.4653 75.6478 12.4653C75.4082 12.4653 75.3184 12.3741 75.3184 12.1309C75.3184 10.8235 75.3184 9.48579 75.3184 8.17845C75.3184 7.87442 75.4681 7.78321 75.7376 7.78321C76.097 7.78321 76.4564 7.78321 76.8157 7.78321C77.4446 7.78321 77.4446 7.78321 77.4446 7.17515V1.70258C77.4446 1.30734 77.4446 0.912095 77.4446 0.486451C77.4446 0 77.4446 0 77.8939 0H81.8469C82.2962 0 82.2962 0 82.2962 0.486451C82.2962 2.58427 82.2962 4.68209 82.2962 6.77991V7.29676C82.2962 7.78321 82.2962 7.78321 82.8053 7.78321C83.7337 7.78321 84.692 7.78321 85.6204 7.78321C86.0696 7.78321 86.0995 7.81362 86.0995 8.26966C86.0995 9.48579 86.0995 10.7019 86.0995 11.918C86.0995 12.4045 86.0696 12.4349 85.5605 12.4349C84.6321 12.4349 83.7337 12.4349 82.8053 12.4349C82.2962 12.4349 82.2962 12.4349 82.2962 12.9822C82.2962 15.6272 82.2962 18.2419 82.2962 20.8566Z"
                  fill="#0C0C0C"/>
            <path d="M113.082 9.63783C113.502 9.30339 113.891 8.93856 114.28 8.57372C115.927 7.20558 117.754 6.99275 119.731 7.54001C120.39 7.72243 121.018 7.99606 121.587 8.33049C121.917 8.51291 121.947 8.54332 121.767 8.90815C121.138 10.2155 120.479 11.4924 119.85 12.7998C119.731 13.043 119.611 13.043 119.401 12.9214C118.832 12.5261 118.203 12.2525 117.544 12.1309C115.957 11.7965 114.37 12.6477 113.711 14.1375C113.292 15.1104 113.052 16.1745 113.052 17.2386C113.022 20.4006 113.052 23.5625 113.022 26.7548C113.022 27.4541 113.022 28.123 113.022 28.8222C113.022 29.2175 113.022 29.2479 112.603 29.2479C111.226 29.2479 109.848 29.2479 108.47 29.2479C108.201 29.2479 108.051 29.1871 108.081 28.8526C108.081 28.731 108.081 28.6094 108.081 28.5182V8.51291C108.081 7.75283 108.021 7.81364 108.8 7.81364C110.058 7.81364 111.315 7.81364 112.573 7.81364C113.022 7.81364 113.022 7.81364 113.022 8.26969C113.022 8.72573 113.082 9.09057 113.082 9.63783Z"
                  fill="#0C0C0C"/>
            <path d="M23.9582 9.66819C24.6769 9.06013 25.216 8.48247 25.8748 8.05682C26.9829 7.35755 28.3006 7.11432 29.5883 7.29674C30.6065 7.44876 31.5649 7.78319 32.4333 8.30005C32.8526 8.51287 32.8526 8.54327 32.643 8.93851C32.044 10.1546 31.4451 11.4012 30.8162 12.6173C30.6065 13.0429 30.6065 13.0429 30.1873 12.7997C29.5284 12.3437 28.7498 12.1004 27.9711 12.07C26.1743 12.0396 25.0662 12.8909 24.4673 14.4719C24.0779 15.536 23.8983 16.6305 23.8983 17.7554C23.8683 21.3126 23.8983 24.8394 23.8983 28.3965C23.8983 29.3086 24.018 29.187 23.0897 29.2174C21.9517 29.2174 20.7837 29.2174 19.6457 29.2174C19.0168 29.2174 19.0467 29.2478 19.0467 28.579V8.36085C19.0467 7.78319 19.0467 7.78319 19.6157 7.78319C20.9035 7.78319 22.1613 7.78319 23.449 7.78319C23.8983 7.78319 23.9282 7.78319 23.9282 8.26964C23.9582 8.69529 23.9582 9.12093 23.9582 9.66819Z"
                  fill="#0C0C0C"/>
            <path d="M4.10283 43.5982C3.11456 43.6286 2.15623 43.2333 1.43749 42.5341C0.0299511 41.0747 0.0299511 38.7337 1.43749 37.2743C2.12629 36.5446 3.08461 36.1798 4.10283 36.1798C4.73173 36.1798 5.36063 36.3318 5.89969 36.6663C6.43875 36.9703 6.88796 37.4263 7.18744 37.9432L6.55854 38.308C6.3489 37.8824 5.98953 37.5175 5.57027 37.2743C5.12105 37.0007 4.64189 36.8791 4.13278 36.8791C2.48566 36.8791 1.16796 38.2168 1.16796 39.889C1.16796 41.5612 2.48566 42.8989 4.13278 42.8989C4.64189 42.8989 5.151 42.7773 5.57027 42.5037C5.98953 42.2604 6.3489 41.8956 6.55854 41.47L7.18744 41.8348C6.88796 42.3821 6.46869 42.8381 5.92964 43.1117C5.39058 43.4462 4.76168 43.6286 4.10283 43.5982Z"
                  fill="#0C0C0C"/>
            <path d="M16.7108 43.4765L15.0637 40.6186H13.0872V43.4765H12.3684V36.3014H15.2134C16.3814 36.3014 17.3397 37.2743 17.3397 38.46C17.3397 38.9161 17.19 39.3721 16.9205 39.7673C16.6509 40.1322 16.2616 40.4058 15.8124 40.5274L17.5494 43.4765H16.7108ZM13.0872 36.9703V39.9194H15.2134C15.6028 39.9194 15.9621 39.7673 16.2017 39.4937C16.7408 38.9161 16.7408 38.004 16.2017 37.3959C15.9322 37.1223 15.5728 36.9703 15.2134 36.9703H13.0872Z"
                  fill="#0C0C0C"/>
            <path d="M23.2993 42.8077H26.7433V43.4765H22.5806V36.3014H26.6834V36.9703H23.2993V39.5241H26.4438V40.193H23.2993V42.8077Z"
                  fill="#0C0C0C"/>
            <path d="M36.7757 43.4765L36.1169 41.7131H32.7628L32.1039 43.4765H31.3552L34.0805 36.3014H34.7992L37.5244 43.4765H36.7757ZM33.0323 41.0443H35.8773L34.4398 37.1831L33.0323 41.0443Z"
                  fill="#0C0C0C"/>
            <path d="M46.4189 36.3014V36.9703H44.2328V43.4765H43.514V36.9703H41.3578V36.3014H46.4189Z" fill="#0C0C0C"/>
            <path d="M51.48 36.3014H52.1987V43.4765H51.48V36.3014Z" fill="#0C0C0C"/>
            <path d="M59.7456 43.4765L57.1401 36.3014H57.9188L60.1349 42.534L62.351 36.3014H63.1297L60.5242 43.4765H59.7456Z"
                  fill="#0C0C0C"/>
            <path d="M68.7298 42.8077H72.1738V43.4765H68.041V36.3014H72.1439V36.9703H68.7598V39.5241H71.8743V40.193H68.7298V42.8077Z"
                  fill="#0C0C0C"/>
            <path d="M88.7049 43.4765L88.0461 41.7131H84.692L84.0331 43.4765H83.2844L86.0097 36.3014H86.7284L89.4536 43.4765H88.7049ZM84.9315 41.0443H87.7766L86.3391 37.1831L84.9315 41.0443Z"
                  fill="#0C0C0C"/>
            <path d="M100.894 40.0713V40.4362C100.924 41.2875 100.564 42.1083 99.9652 42.686C99.2764 43.3245 98.378 43.6589 97.4496 43.5981C96.4614 43.6285 95.503 43.2333 94.7843 42.534C93.3768 41.0746 93.3768 38.7336 94.7843 37.2742C95.4731 36.575 96.4614 36.1797 97.4496 36.2101C98.0785 36.2101 98.7074 36.3621 99.2465 36.6966C99.7856 37.0006 100.205 37.4567 100.504 37.9735L99.8754 38.3384C99.6358 37.9127 99.3064 37.5479 98.8871 37.3046C98.4379 37.031 97.9587 36.9094 97.4496 36.9094C95.8025 36.9702 94.5148 38.3688 94.6046 40.0409C94.6944 41.7131 96.0421 43.0204 97.6892 42.9292C98.2882 42.8988 98.8871 42.686 99.3663 42.3212C99.8454 41.9259 100.115 41.3787 100.175 40.7706H97.3598V40.1017L100.894 40.0713Z"
                  fill="#0C0C0C"/>
            <path d="M106.883 42.8077H110.327V43.4765H106.194V36.3014H110.297V36.9703H106.913V39.5241H110.058V40.193H106.913V42.8077H106.883Z"
                  fill="#0C0C0C"/>
            <path d="M120.09 36.3014H120.809V43.4765H120.21L116.257 37.6391V43.4765H115.538V36.3014H116.137L120.09 42.1388V36.3014Z"
                  fill="#0C0C0C"/>
            <path d="M129.763 43.5981C128.775 43.6285 127.817 43.2332 127.098 42.5339C125.69 41.0746 125.69 38.7336 127.098 37.2742C128.296 36.1189 130.093 35.8453 131.56 36.6661C132.099 36.9702 132.518 37.4262 132.818 37.9431L132.189 38.3079C131.979 37.8823 131.62 37.5174 131.201 37.2742C130.752 37.0006 130.272 36.879 129.763 36.879C128.116 36.879 126.798 38.2167 126.798 39.8889C126.798 41.561 128.116 42.8988 129.763 42.8988C130.272 42.8988 130.781 42.7772 131.201 42.5035C131.62 42.2603 131.979 41.8955 132.189 41.4698L132.818 41.8347C132.518 42.3819 132.099 42.838 131.56 43.1116C131.021 43.446 130.392 43.5981 129.763 43.5981Z"
                  fill="#0C0C0C"/>
            <path d="M143 36.3014L140.454 40.5274V43.4766H139.736V40.497L137.19 36.271H137.999L140.095 39.7978L142.191 36.271L143 36.3014Z"
                  fill="#0C0C0C"/>
        </g>
        <defs>
            <clipPath id="clip0">
                <rect width="143" height="46" fill="white"/>
            </clipPath>
        </defs>
    </symbol>


    <symbol id="tg" viewBox="0 0 24 24" xmlns="http://www.w3.org/2000/svg">
        <path d="M17.2993 6.80084L15.2283 16.5679C15.072 17.2573 14.6646 17.4287 14.0855 17.1041L10.9299 14.7787L9.40732 16.2432C9.23884 16.4116 9.09786 16.5526 8.77311 16.5526L8.99983 13.3388L14.8484 8.0539C15.1027 7.82717 14.7933 7.70156 14.4532 7.92828L7.22288 12.4809L4.11018 11.5067C3.4331 11.2953 3.42091 10.8296 4.2511 10.5049L16.4262 5.81433C16.9898 5.60298 17.4831 5.93994 17.2993 6.80084Z"/>
        <path d="M11.6705 23.3679C5.18297 23.396 -0.151406 17.996 0.00328167 11.4007C0.148594 5.11946 5.35172 -0.0696063 11.8205 0.000706255C18.2283 0.0710188 23.5298 5.40539 23.3564 12.0101C23.1923 18.2632 18.0314 23.4007 11.6705 23.3679ZM1.42359 11.7007C1.47516 17.5741 6.23766 22.0976 11.8627 21.9991C17.3095 21.9007 21.9267 17.4616 21.9267 11.6866C21.9267 5.81321 17.1267 1.27102 11.483 1.37883C6.03609 1.47727 1.46109 5.93039 1.42359 11.7007Z"/>
    </symbol>

    <symbol id="fb" viewBox="0 0 24 24" xmlns="http://www.w3.org/2000/svg">
        <path d="M12.1313 23.775C5.64378 23.8031 0.30941 18.4031 0.464097 11.8078C0.60941 5.52656 5.81253 0.337498 12.2813 0.407811C18.6891 0.478123 23.9907 5.8125 23.8172 12.4172C23.6532 18.6703 18.4922 23.8078 12.1313 23.775ZM1.88441 12.1078C1.93597 17.9812 6.69847 22.5047 12.3235 22.4062C17.7703 22.3078 22.3875 17.8687 22.3875 12.0937C22.3875 6.22031 17.5875 1.67812 11.9438 1.78594C6.49691 1.88437 1.92191 6.3375 1.88441 12.1078Z"/>
        <path d="M9.69385 20.3156C9.69385 17.5547 9.69385 14.8172 9.69385 12.0516C9.08447 12.0516 8.49385 12.0516 7.88916 12.0516C7.88916 11.1141 7.88916 10.2047 7.88916 9.26719C7.96885 9.2625 8.04854 9.25312 8.13291 9.25312C8.56885 9.25312 9.00947 9.24375 9.44541 9.25781C9.6376 9.2625 9.70322 9.21094 9.69854 9.01406C9.68916 8.30156 9.68916 7.59375 9.69385 6.88125C9.69854 6.07969 9.92354 5.35313 10.4954 4.77188C11.0485 4.20938 11.7564 3.90469 12.5251 3.85781C13.7626 3.7875 15.0048 3.79688 16.247 3.77344C16.261 3.77344 16.2751 3.7875 16.3032 3.80156C16.3032 4.74375 16.3032 5.69063 16.3032 6.66094C16.2142 6.66563 16.1298 6.67031 16.0501 6.67031C15.4876 6.67031 14.9251 6.67031 14.3626 6.67031C13.7954 6.675 13.4626 7.0125 13.4626 7.57031C13.4626 8.1 13.4626 8.63438 13.4673 9.16406C13.4673 9.17812 13.4767 9.19219 13.4907 9.24375C14.4189 9.24375 15.3564 9.24375 16.3407 9.24375C16.2189 10.1953 16.1064 11.1047 15.9845 12.0469C15.136 12.0469 14.3064 12.0469 13.4532 12.0469C13.4532 14.8219 13.4532 17.5688 13.4532 20.325C12.1923 20.3156 10.9642 20.3156 9.69385 20.3156Z"/>
    </symbol>

    <symbol id="in" viewBox="0 0 24 24" xmlns="http://www.w3.org/2000/svg">
        <path d="M23.6718 12.0469C23.6718 13.6781 23.639 15.3141 23.6812 16.9453C23.7515 19.8328 21.9375 22.0641 19.6265 23.0578C18.6984 23.4563 17.7234 23.6672 16.7156 23.6672C13.5609 23.6719 10.4015 23.7141 7.24683 23.6531C4.87026 23.6063 2.91558 22.6125 1.51401 20.6531C0.778076 19.6219 0.426514 18.45 0.426514 17.1797C0.426514 13.8188 0.426514 10.4625 0.426514 7.10158C0.426514 4.35939 1.76245 2.44221 4.13433 1.19533C5.16558 0.656269 6.28589 0.426581 7.45308 0.421894C10.514 0.421894 13.5796 0.403144 16.6406 0.431269C19.0171 0.450019 21 1.35939 22.4625 3.27189C23.2781 4.34064 23.6718 5.56877 23.6718 6.91877C23.6718 8.62502 23.6718 10.336 23.6718 12.0469ZM2.1562 12.0469C2.1562 13.7672 2.1562 15.4828 2.1562 17.2031C2.1562 17.9719 2.33433 18.6938 2.73276 19.3453C3.77808 21.0563 5.35776 21.8906 7.31714 21.9235C10.4625 21.9703 13.6125 21.9422 16.7625 21.9328C17.5359 21.9328 18.2859 21.7735 18.9843 21.4406C20.8875 20.5313 21.9515 19.0828 21.9421 16.9078C21.9234 13.5797 21.9375 10.2516 21.9375 6.92346C21.9375 5.98127 21.6703 5.11877 21.1125 4.35939C20.0343 2.90158 18.5437 2.18439 16.7625 2.16564C13.6218 2.12814 10.4812 2.15158 7.34058 2.15627C6.67026 2.15627 6.02339 2.29221 5.39526 2.52658C3.67026 3.16877 2.06714 4.79533 2.14214 7.19064C2.19839 8.81252 2.1562 10.4297 2.1562 12.0469Z"/>
        <path d="M12.075 17.0156C9.05157 17.0156 6.61407 14.6063 6.60938 11.6063C6.60469 8.65313 9.06095 6.23438 12.0656 6.23438C15.0797 6.22969 17.5266 8.64376 17.5313 11.6203C17.5313 14.5922 15.0891 17.0109 12.075 17.0156ZM12.075 15.2813C14.1328 15.2813 15.8016 13.6359 15.7969 11.6109C15.7922 9.60469 14.1235 7.96407 12.075 7.96407C10.0172 7.96407 8.33907 9.60001 8.33907 11.6203C8.34376 13.6453 10.0172 15.2859 12.075 15.2813Z"/>
        <path d="M18.164 4.59375C18.7969 4.59375 19.3125 5.13281 19.3125 5.79375C19.3078 6.45469 18.7875 6.98906 18.1547 6.98437C17.5312 6.97969 17.0203 6.44531 17.0203 5.79844C17.0156 5.1375 17.5312 4.59375 18.164 4.59375Z"/>
    </symbol>


    <symbol id="person" viewBox="0 0 37 36" fill="none" xmlns="http://www.w3.org/2000/svg">
        <path d="M18.6937 16.991C21.9562 16.991 24.6011 14.3461 24.6011 11.0836C24.6011 7.82098 21.9562 5.17615 18.6937 5.17615C15.4311 5.17615 12.7863 7.82098 12.7863 11.0836C12.7863 14.3461 15.4311 16.991 18.6937 16.991Z"
              fill="#81C2FF"/>
        <path d="M30.5084 30.2826V24.3752C30.5084 23.4891 30.0654 22.603 29.3269 22.0122C27.7024 20.6831 25.6348 19.7969 23.5672 19.2062C22.0904 18.7631 20.4658 18.4678 18.6936 18.4678C17.0691 18.4678 15.4445 18.7631 13.82 19.2062C11.7524 19.7969 9.6848 20.8307 8.06027 22.0122C7.32184 22.603 6.87878 23.4891 6.87878 24.3752V30.2826H30.5084Z"
              fill="#81C2FF"/>
    </symbol>

    <symbol id="services-1" viewBox="0 0 95 84" fill="none" xmlns="http://www.w3.org/2000/svg">
        <rect y="34.2227" width="60.3383" height="60.3383" rx="11" transform="rotate(-34.4147 0 34.2227)"
              fill="#FE6FDF"/>
        <g filter="url(#filter0_b)">
            <rect x="28.6993" y="1.31738" width="65.7695" height="65.7695" rx="14" fill="#FFC7F3" fill-opacity="0.37"/>
            <rect x="29.1993" y="1.81738" width="64.7695" height="64.7695" rx="13.5" stroke="url(#paint0_linear)"/>
        </g>
        <g clip-path="url(#clip0)">
            <path d="M70.8143 43.8078V24.5155H65.1342V19.2539H58.0341V35.0386H52.354V43.8078H50.224V45.5617H52.354H58.0341H59.4541H63.7142H65.1342H70.8143H72.9444V43.8078H70.8143ZM53.7741 43.8078V36.7924H58.0341V43.8078H53.7741ZM59.4541 43.8078V35.0386V21.0078H63.7142V24.5155V43.8078H59.4541ZM65.1342 43.8078V26.2693H69.3943V43.8078H65.1342Z"
                  fill="white"/>
        </g>
        <defs>
            <filter id="filter0_b" x="19.6993" y="-7.68262" width="83.7695" height="83.7695"
                    filterUnits="userSpaceOnUse" color-interpolation-filters="sRGB">
                <feFlood flood-opacity="0" result="BackgroundImageFix"/>
                <feGaussianBlur in="BackgroundImage" stdDeviation="4.5"/>
                <feComposite in2="SourceAlpha" operator="in" result="effect1_backgroundBlur"/>
                <feBlend mode="normal" in="SourceGraphic" in2="effect1_backgroundBlur" result="shape"/>
            </filter>
            <linearGradient id="paint0_linear" x1="35.2763" y1="3.70902" x2="101.537" y2="36.7223"
                            gradientUnits="userSpaceOnUse">
                <stop stop-color="white"/>
                <stop offset="1" stop-color="white" stop-opacity="0.44"/>
                <stop offset="1" stop-color="white" stop-opacity="0.03"/>
            </linearGradient>
            <clipPath id="clip0">
                <rect width="22.7204" height="26.3078" fill="white" transform="translate(50.224 19.2539)"/>
            </clipPath>
        </defs>
    </symbol>

    <symbol id="services-2" viewBox="0 0 96 84" fill="none" xmlns="http://www.w3.org/2000/svg">
        <rect x="0.980713" y="34.1709" width="60.0389" height="60.0389" rx="11"
              transform="rotate(-34.5569 0.980713 34.1709)" fill="#6792FF"/>
        <g filter="url(#filter0_b)">
            <rect x="29.4563" y="1.35742" width="65.443" height="65.443" rx="14"
                  transform="rotate(-0.142253 29.4563 1.35742)" fill="#AAC2FF" fill-opacity="0.26"/>
            <rect x="29.9575" y="1.85618" width="64.443" height="64.443" rx="13.5"
                  transform="rotate(-0.142253 29.9575 1.85618)" stroke="url(#paint0_linear)"/>
        </g>
        <g clip-path="url(#clip0)">
            <path d="M49.1864 46.5276C49.0609 46.5279 48.9405 46.4783 48.8516 46.3899C48.7627 46.3014 48.7125 46.1812 48.7122 46.0558L48.6499 20.958C48.6485 19.8942 49.0692 18.8732 49.8195 18.1191C50.5699 17.3649 51.5888 16.9392 52.6526 16.9353L73.7633 16.8829C73.8887 16.8826 74.0091 16.9322 74.098 17.0206C74.187 17.1091 74.2371 17.2293 74.2374 17.3547L74.2998 42.4728C74.3001 42.5983 74.2505 42.7187 74.1621 42.8076C74.0736 42.8965 73.9534 42.9467 73.828 42.947L52.7022 42.9994C51.8939 43.0017 51.1194 43.3245 50.5487 43.897C49.9781 44.4695 49.6578 45.2451 49.6582 46.0534C49.6585 46.1789 49.609 46.2993 49.5205 46.3882C49.432 46.4771 49.3118 46.5272 49.1864 46.5276ZM52.655 17.8813C51.8419 17.8843 51.0633 18.2097 50.4898 18.786C49.9163 19.3623 49.5948 20.1426 49.5959 20.9557L49.6518 43.4767C50.0257 43.0319 50.4921 42.6741 51.0186 42.4282C51.545 42.1823 52.1188 42.0543 52.6999 42.053L73.3526 42.0017L73.2926 17.8301L52.655 17.8813Z"
                  fill="white"/>
            <path d="M54.8391 42.9935C54.7137 42.9938 54.5933 42.9443 54.5044 42.8558C54.4154 42.7674 54.3653 42.6472 54.365 42.5217L54.3026 17.4036C54.3023 17.2782 54.3518 17.1578 54.4403 17.0689C54.5288 16.9799 54.649 16.9298 54.7744 16.9295C54.8999 16.9292 55.0203 16.9787 55.1092 17.0672C55.1981 17.1557 55.2483 17.2758 55.2486 17.4013L55.3109 42.5194C55.3112 42.6448 55.2617 42.7653 55.1732 42.8542C55.0848 42.9431 54.9646 42.9932 54.8391 42.9935Z"
                  fill="white"/>
            <path d="M73.8454 49.9911L52.7197 50.0436C52.1914 50.0506 51.667 49.9529 51.1768 49.7559C50.6866 49.5589 50.2403 49.2667 49.8637 48.8961C49.4872 48.5255 49.1879 48.0839 48.9832 47.5968C48.7785 47.1098 48.6724 46.587 48.6711 46.0587C48.6698 45.5304 48.7733 45.007 48.9756 44.519C49.1779 44.0309 49.475 43.5878 49.8496 43.2154C50.2243 42.8429 50.6691 42.5484 51.1584 42.349C51.6476 42.1496 52.1716 42.0492 52.6999 42.0537L73.8256 42.0012C73.9091 42.0011 73.9912 42.023 74.0635 42.0649C74.1357 42.1067 74.1956 42.1669 74.2371 42.2394C74.2785 42.3119 74.3001 42.3941 74.2995 42.4776C74.2989 42.5611 74.2762 42.643 74.2337 42.7149C73.5942 43.6901 73.2549 44.8315 73.2578 45.9976C73.2607 47.1638 73.6056 48.3035 74.2499 49.2755C74.2928 49.3471 74.3159 49.4289 74.3169 49.5124C74.3179 49.5959 74.2968 49.6782 74.2557 49.7509C74.2146 49.8236 74.155 49.8841 74.083 49.9263C74.0109 49.9685 73.9289 49.9909 73.8454 49.9911ZM52.7022 42.9996C52.2986 42.9956 51.8982 43.0717 51.5242 43.2237C51.1503 43.3756 50.8102 43.6002 50.5237 43.8845C50.2373 44.1689 50.0101 44.5072 49.8554 44.8801C49.7007 45.2529 49.6215 45.6527 49.6225 46.0563C49.6236 46.4599 49.7047 46.8593 49.8612 47.2314C50.0178 47.6034 50.2466 47.9407 50.5345 48.2236C50.8224 48.5065 51.1636 48.7294 51.5383 48.8795C51.913 49.0295 52.3138 49.1037 52.7173 49.0976L73.0523 49.0472C72.5701 48.1036 72.3175 47.0596 72.3149 46C72.3122 44.9404 72.5597 43.8951 73.0371 42.9491L52.7022 42.9996Z"
                  fill="white"/>
            <path d="M70.5356 33.2482L58.0832 33.2792C57.7592 33.2796 57.4482 33.1515 57.2186 32.9229C56.9889 32.6944 56.8592 32.3841 56.858 32.06L56.839 24.3813C56.8385 24.0573 56.9667 23.7464 57.1952 23.5167C57.4238 23.287 57.7341 23.1573 58.0581 23.1561L63.3554 23.143C63.4808 23.1427 63.6012 23.1922 63.6902 23.2807C63.7791 23.3692 63.8292 23.4894 63.8295 23.6148C63.8298 23.7402 63.7803 23.8607 63.6918 23.9496C63.6033 24.0385 63.4832 24.0886 63.3577 24.0889L58.0604 24.1021C57.9872 24.1024 57.9171 24.1317 57.8655 24.1836C57.8138 24.2355 57.7849 24.3058 57.7849 24.379L57.804 32.0577C57.8043 32.1309 57.8336 32.201 57.8855 32.2527C57.9374 32.3043 58.0077 32.3333 58.0809 32.3332L70.5333 32.3023C70.6065 32.302 70.6766 32.2727 70.7282 32.2208C70.7799 32.1689 70.8089 32.0986 70.8088 32.0254L70.7897 24.3467C70.7894 24.2735 70.7601 24.2034 70.7082 24.1517C70.6563 24.1001 70.5861 24.0711 70.5128 24.0712L65.2156 24.0843C65.0901 24.0846 64.9697 24.0351 64.8808 23.9466C64.7919 23.8581 64.7417 23.738 64.7414 23.6125C64.7411 23.4871 64.7906 23.3667 64.8791 23.2777C64.9676 23.1888 65.0878 23.1387 65.2132 23.1384L70.5105 23.1252C70.8345 23.1248 71.1455 23.2529 71.3752 23.4815C71.6048 23.71 71.7345 24.0203 71.7357 24.3444L71.7547 32.023C71.7552 32.3471 71.6271 32.658 71.3985 32.8877C71.17 33.1174 70.8596 33.2471 70.5356 33.2482V33.2482Z"
                  fill="white"/>
            <path d="M64.8996 25.4203L63.6822 25.4234C63.4717 25.4238 63.2696 25.3406 63.1204 25.1922C62.9711 25.0438 62.8868 24.8422 62.8861 24.6317L62.8815 22.8112C62.8814 22.6008 62.9647 22.3988 63.1132 22.2497C63.2617 22.1006 63.4632 22.0164 63.6737 22.0156L64.8916 22.0126C65.1021 22.0123 65.3042 22.0956 65.4534 22.2441C65.6027 22.3926 65.6869 22.5942 65.6877 22.8047L65.6922 24.6252C65.6924 24.8357 65.609 25.0376 65.4604 25.1867C65.3118 25.3358 65.1101 25.4198 64.8996 25.4203V25.4203ZM63.8312 24.477L64.7454 24.4748L64.7417 22.9589L63.8274 22.9612L63.8312 24.477Z"
                  fill="white"/>
            <path d="M60.9055 27.7565C60.6373 27.7572 60.3749 27.6783 60.1515 27.5298C59.9281 27.3813 59.7538 27.17 59.6506 26.9224C59.5473 26.6749 59.5198 26.4023 59.5715 26.1391C59.6232 25.8759 59.7518 25.634 59.941 25.4439C60.1303 25.2538 60.3716 25.1241 60.6345 25.0711C60.8975 25.0182 61.1702 25.0445 61.4182 25.1466C61.6663 25.2486 61.8784 25.422 62.0279 25.6447C62.1774 25.8674 62.2575 26.1294 62.2581 26.3976C62.2586 26.7571 62.1165 27.1021 61.8629 27.3569C61.6093 27.6116 61.2649 27.7554 60.9055 27.7565V27.7565ZM60.9011 25.9909C60.82 25.9911 60.7408 26.0154 60.6734 26.0606C60.6061 26.1058 60.5537 26.17 60.5229 26.245C60.492 26.32 60.4841 26.4025 60.5001 26.482C60.5161 26.5615 60.5554 26.6344 60.6129 26.6916C60.6704 26.7489 60.7435 26.7877 60.8231 26.8034C60.9027 26.819 60.9851 26.8107 61.06 26.7794C61.1348 26.7482 61.1987 26.6955 61.2436 26.6279C61.2885 26.5604 61.3124 26.4811 61.3122 26.3999C61.3118 26.2912 61.2683 26.1871 61.1912 26.1104C61.1141 26.0337 61.0098 25.9908 60.9011 25.9909V25.9909Z"
                  fill="white"/>
            <path d="M62.7596 30.8299L59.0671 30.839C58.9417 30.8393 58.8212 30.7898 58.7323 30.7013C58.6434 30.6128 58.5933 30.4927 58.593 30.3672C58.5922 29.8196 58.8087 29.2941 59.195 28.9059C59.5812 28.5177 60.1057 28.2986 60.6533 28.2966L61.1608 28.2954C61.7084 28.2946 62.2339 28.5111 62.6221 28.8974C63.0103 29.2837 63.2294 29.8081 63.2314 30.3557C63.2317 30.4811 63.1822 30.6016 63.0937 30.6905C63.0052 30.7794 62.885 30.8295 62.7596 30.8299V30.8299ZM59.6423 29.8916L62.1797 29.8853C62.0889 29.6926 61.9451 29.5296 61.7651 29.4156C61.585 29.3015 61.3763 29.2411 61.1631 29.2413L60.6556 29.2426C60.4425 29.2434 60.2341 29.3049 60.0546 29.4198C59.8751 29.5347 59.7321 29.6984 59.6423 29.8916V29.8916Z"
                  fill="white"/>
            <path d="M69.5317 27.4362L64.4998 27.4487C64.3744 27.449 64.2539 27.3995 64.165 27.311C64.0761 27.2225 64.026 27.1023 64.0256 26.9769C64.0253 26.8514 64.0749 26.731 64.1633 26.6421C64.2518 26.5532 64.372 26.503 64.4974 26.5027L69.5294 26.4902C69.6548 26.4899 69.7753 26.5395 69.8642 26.6279C69.9531 26.7164 70.0032 26.8366 70.0035 26.962C70.0038 27.0875 69.9543 27.2079 69.8658 27.2968C69.7774 27.3857 69.6572 27.4359 69.5317 27.4362Z"
                  fill="white"/>
            <path d="M69.5399 30.7233L64.508 30.7358C64.3825 30.7361 64.2621 30.6866 64.1732 30.5981C64.0843 30.5096 64.0341 30.3894 64.0338 30.264C64.0335 30.1385 64.083 30.0181 64.1715 29.9292C64.26 29.8403 64.3802 29.7902 64.5056 29.7898L69.5376 29.7773C69.663 29.777 69.7834 29.8266 69.8724 29.915C69.9613 30.0035 70.0114 30.1237 70.0117 30.2491C70.012 30.3746 69.9625 30.495 69.874 30.5839C69.7855 30.6728 69.6654 30.723 69.5399 30.7233Z"
                  fill="white"/>
            <path d="M70.6124 44.9439L52.5804 44.9887C52.4549 44.989 52.3345 44.9395 52.2456 44.851C52.1567 44.7625 52.1065 44.6424 52.1062 44.5169C52.1059 44.3915 52.1554 44.2711 52.2439 44.1821C52.3324 44.0932 52.4526 44.0431 52.578 44.0428L70.6101 43.998C70.7355 43.9977 70.8559 44.0472 70.9448 44.1357C71.0338 44.2242 71.0839 44.3444 71.0842 44.4698C71.0845 44.5952 71.035 44.7157 70.9465 44.8046C70.858 44.8935 70.7378 44.9436 70.6124 44.9439Z"
                  fill="white"/>
            <path d="M70.6194 47.7418L52.5873 47.7866C52.4619 47.7869 52.3415 47.7373 52.2525 47.6489C52.1636 47.5604 52.1135 47.4402 52.1132 47.3148C52.1129 47.1893 52.1624 47.0689 52.2509 46.98C52.3394 46.8911 52.4595 46.8409 52.585 46.8406L70.617 46.7959C70.7425 46.7955 70.8629 46.8451 70.9518 46.9336C71.0407 47.022 71.0908 47.1422 71.0912 47.2677C71.0915 47.3931 71.0419 47.5135 70.9535 47.6024C70.865 47.6914 70.7448 47.7415 70.6194 47.7418Z"
                  fill="white"/>
        </g>
        <defs>
            <filter id="filter0_b" x="20.4563" y="-7.80469" width="83.6053" height="83.6053"
                    filterUnits="userSpaceOnUse" color-interpolation-filters="sRGB">
                <feFlood flood-opacity="0" result="BackgroundImageFix"/>
                <feGaussianBlur in="BackgroundImage" stdDeviation="4.5"/>
                <feComposite in2="SourceAlpha" operator="in" result="effect1_backgroundBlur"/>
                <feBlend mode="normal" in="SourceGraphic" in2="effect1_backgroundBlur" result="shape"/>
            </filter>
            <linearGradient id="paint0_linear" x1="36.0006" y1="3.73719" x2="101.933" y2="36.5866"
                            gradientUnits="userSpaceOnUse">
                <stop stop-color="white"/>
                <stop offset="1" stop-color="white" stop-opacity="0.44"/>
                <stop offset="1" stop-color="white" stop-opacity="0.03"/>
            </linearGradient>
            <clipPath id="clip0">
                <rect width="35" height="35" fill="white" transform="translate(43.9358 16.0107) rotate(-0.142253)"/>
            </clipPath>
        </defs>
    </symbol>

    <symbol id="services-3" viewBox="0 0 95 85" fill="none" xmlns="http://www.w3.org/2000/svg">
        <rect y="34.2939" width="60.6776" height="60.6776" rx="11" transform="rotate(-34.4147 0 34.2939)"
              fill="#BB86FF"/>
        <g filter="url(#filter0_b)">
            <rect x="28.8608" y="1.20215" width="66.1392" height="66.1392" rx="14" fill="#D0ABFF" fill-opacity="0.33"/>
            <rect x="29.3608" y="1.70215" width="65.1392" height="65.1392" rx="13.5" stroke="url(#paint0_linear)"/>
        </g>
        <path d="M54.3906 18.7344C54.3906 18.5893 54.4482 18.4502 54.5508 18.3477C54.6534 18.2451 54.7925 18.1875 54.9375 18.1875H58.2188C58.3638 18.1875 58.5029 18.2451 58.6054 18.3477C58.708 18.4502 58.7656 18.5893 58.7656 18.7344C58.7656 18.8794 58.708 19.0185 58.6054 19.1211C58.5029 19.2236 58.3638 19.2812 58.2188 19.2812H54.9375C54.7925 19.2812 54.6534 19.2236 54.5508 19.1211C54.4482 19.0185 54.3906 18.8794 54.3906 18.7344Z"
              fill="white"/>
        <path d="M73.8047 42.25H65.875V48.5391C65.8744 49.0465 65.6726 49.5331 65.3138 49.8919C64.9549 50.2507 64.4684 50.4526 63.9609 50.4531H49.1953C48.6878 50.4526 48.2013 50.2507 47.8425 49.8919C47.4837 49.5331 47.2818 49.0465 47.2812 48.5391V18.4609C47.2818 17.9535 47.4837 17.4669 47.8425 17.1081C48.2013 16.7493 48.6878 16.5474 49.1953 16.5469H63.9609C64.4684 16.5474 64.9549 16.7493 65.3138 17.1081C65.6726 17.4669 65.8744 17.9535 65.875 18.4609V24.75H73.8047C74.3122 24.7506 74.7987 24.9524 75.1575 25.3112C75.5163 25.6701 75.7182 26.1566 75.7188 26.6641V40.3359C75.7182 40.8434 75.5163 41.3299 75.1575 41.6888C74.7987 42.0476 74.3122 42.2494 73.8047 42.25ZM58.5537 49.3594L58.3712 48.8125H54.7851L54.6025 49.3594H58.5537ZM64.7812 18.4609C64.7811 18.2434 64.6946 18.0349 64.5408 17.8811C64.387 17.7273 64.1784 17.6408 63.9609 17.6406H49.1953C48.9778 17.6408 48.7693 17.7273 48.6155 17.8811C48.4617 18.0349 48.3752 18.2434 48.375 18.4609V48.5391C48.3752 48.7566 48.4617 48.9651 48.6155 49.1189C48.7693 49.2727 48.9778 49.3592 49.1953 49.3594H53.4493L53.8718 48.0927C53.9081 47.9838 53.9777 47.8891 54.0708 47.822C54.164 47.7549 54.2758 47.7187 54.3906 47.7188H58.7656C58.8804 47.7187 58.9923 47.7549 59.0854 47.822C59.1785 47.8891 59.2482 47.9838 59.2845 48.0927L59.7069 49.3594H63.9609C64.1784 49.3592 64.387 49.2727 64.5408 49.1189C64.6946 48.9651 64.7811 48.7566 64.7812 48.5391V42.25H56.8516C56.3441 42.2494 55.8576 42.0476 55.4987 41.6888C55.1399 41.3299 54.9381 40.8434 54.9375 40.3359V26.6641C54.9381 26.1566 55.1399 25.6701 55.4987 25.3112C55.8576 24.9524 56.3441 24.7506 56.8516 24.75H64.7812V18.4609ZM74.625 26.6641C74.6248 26.4466 74.5383 26.238 74.3845 26.0842C74.2307 25.9304 74.0222 25.8439 73.8047 25.8438H56.8516C56.6341 25.8439 56.4255 25.9304 56.2717 26.0842C56.1179 26.238 56.0314 26.4466 56.0312 26.6641V37.875H74.625V26.6641ZM74.625 38.9688H56.0312V40.3359C56.0314 40.5534 56.1179 40.762 56.2717 40.9158C56.4255 41.0696 56.6341 41.1561 56.8516 41.1562H73.8047C74.0222 41.1561 74.2307 41.0696 74.3845 40.9158C74.5383 40.762 74.6248 40.5534 74.625 40.3359V38.9688Z"
              fill="white"/>
        <path d="M57.6719 40.6094H57.125C56.98 40.6094 56.8409 40.5518 56.7383 40.4492C56.6357 40.3466 56.5781 40.2075 56.5781 40.0625C56.5781 39.9175 56.6357 39.7784 56.7383 39.6758C56.8409 39.5732 56.98 39.5156 57.125 39.5156H57.6719C57.8169 39.5156 57.956 39.5732 58.0586 39.6758C58.1611 39.7784 58.2188 39.9175 58.2188 40.0625C58.2188 40.2075 58.1611 40.3466 58.0586 40.4492C57.956 40.5518 57.8169 40.6094 57.6719 40.6094Z"
              fill="white"/>
        <path d="M59.8594 40.6094H59.3125C59.1675 40.6094 59.0284 40.5518 58.9258 40.4492C58.8232 40.3466 58.7656 40.2075 58.7656 40.0625C58.7656 39.9175 58.8232 39.7784 58.9258 39.6758C59.0284 39.5732 59.1675 39.5156 59.3125 39.5156H59.8594C60.0044 39.5156 60.1435 39.5732 60.2461 39.6758C60.3486 39.7784 60.4062 39.9175 60.4062 40.0625C60.4062 40.2075 60.3486 40.3466 60.2461 40.4492C60.1435 40.5518 60.0044 40.6094 59.8594 40.6094Z"
              fill="white"/>
        <path d="M62.0469 40.6094H61.5C61.355 40.6094 61.2159 40.5518 61.1133 40.4492C61.0107 40.3466 60.9531 40.2075 60.9531 40.0625C60.9531 39.9175 61.0107 39.7784 61.1133 39.6758C61.2159 39.5732 61.355 39.5156 61.5 39.5156H62.0469C62.1919 39.5156 62.331 39.5732 62.4336 39.6758C62.5361 39.7784 62.5938 39.9175 62.5938 40.0625C62.5938 40.2075 62.5361 40.3466 62.4336 40.4492C62.331 40.5518 62.1919 40.6094 62.0469 40.6094Z"
              fill="white"/>
        <defs>
            <filter id="filter0_b" x="19.8608" y="-7.79785" width="84.1392" height="84.1392"
                    filterUnits="userSpaceOnUse" color-interpolation-filters="sRGB">
                <feFlood flood-opacity="0" result="BackgroundImageFix"/>
                <feGaussianBlur in="BackgroundImage" stdDeviation="4.5"/>
                <feComposite in2="SourceAlpha" operator="in" result="effect1_backgroundBlur"/>
                <feBlend mode="normal" in="SourceGraphic" in2="effect1_backgroundBlur" result="shape"/>
            </filter>
            <linearGradient id="paint0_linear" x1="35.4747" y1="3.60724" x2="102.108" y2="36.8061"
                            gradientUnits="userSpaceOnUse">
                <stop stop-color="white"/>
                <stop offset="1" stop-color="white" stop-opacity="0.44"/>
                <stop offset="1" stop-color="white" stop-opacity="0.03"/>
            </linearGradient>
        </defs>
    </symbol>

    <symbol id="services-4" viewBox="0 0 93 83" fill="none" xmlns="http://www.w3.org/2000/svg">
        <rect y="34.2109" width="59.1415" height="59.1415" rx="11" transform="rotate(-34.4147 0 34.2109)"
              fill="#4FB0FF"/>
        <g filter="url(#filter0_b)">
            <rect x="28.1301" y="1.95703" width="64.4649" height="64.4649" rx="14" fill="#B1DCFF" fill-opacity="0.44"/>
            <rect x="28.6301" y="2.45703" width="63.4649" height="63.4649" rx="13.5" stroke="url(#paint0_linear)"/>
        </g>
        <g clip-path="url(#clip0)">
            <path d="M74.3802 26.6802L70.9576 23.6955L67.5353 20.7109L64.1125 23.6955L60.6899 26.6802H64.4354C63.1744 34.4266 56.0168 40.4525 47.8717 39.1713C47.5135 39.1155 47.3684 39.5976 47.7205 39.7199C57.8568 43.2476 69.5345 37.4513 71.2239 26.6802H74.3802Z"
                  fill="white"/>
            <path d="M66.788 36.6885C65.7358 37.6613 64.5588 38.509 63.2843 39.2179V48.8409H66.788V36.6885Z"
                  fill="white"/>
            <path d="M58.0287 48.8411H61.5324V40.0762C60.4191 40.5506 59.2471 40.9247 58.0287 41.1863V48.8411Z"
                  fill="white"/>
            <path d="M68.5399 48.8416H72.0437V27.5566H71.9552C71.4054 30.2732 70.2118 32.732 68.5399 34.8085V48.8416Z"
                  fill="white"/>
            <path d="M51.0212 41.4205C49.8314 41.2465 48.6597 40.9673 47.5175 40.5752V48.8417H51.0212V41.4205Z"
                  fill="white"/>
            <path d="M52.7731 48.8417H56.2768V41.4814C55.48 41.5781 54.668 41.6289 53.8432 41.6289C53.4852 41.6289 53.1287 41.6155 52.7731 41.5962V48.8417Z"
                  fill="white"/>
        </g>
        <defs>
            <filter id="filter0_b" x="19.1301" y="-7.04297" width="82.4649" height="82.4649"
                    filterUnits="userSpaceOnUse" color-interpolation-filters="sRGB">
                <feFlood flood-opacity="0" result="BackgroundImageFix"/>
                <feGaussianBlur in="BackgroundImage" stdDeviation="4.5"/>
                <feComposite in2="SourceAlpha" operator="in" result="effect1_backgroundBlur"/>
                <feBlend mode="normal" in="SourceGraphic" in2="effect1_backgroundBlur" result="shape"/>
            </filter>
            <linearGradient id="paint0_linear" x1="34.5766" y1="4.30123" x2="99.5233" y2="36.6597"
                            gradientUnits="userSpaceOnUse">
                <stop stop-color="white"/>
                <stop offset="1" stop-color="white" stop-opacity="0.44"/>
                <stop offset="1" stop-color="white" stop-opacity="0.03"/>
            </linearGradient>
            <clipPath id="clip0">
                <rect width="28.1301" height="28.1301" fill="white" transform="translate(46.8835 20.7109)"/>
            </clipPath>
        </defs>
    </symbol>

    <symbol id="services-5" viewBox="0 0 92 82" fill="none" xmlns="http://www.w3.org/2000/svg">
        <rect y="32.9902" width="58.371" height="58.371" rx="11" transform="rotate(-34.4147 0 32.9902)" fill="#FE6FDF"/>
        <g filter="url(#filter0_b)">
            <rect x="27.7637" y="1.15625" width="63.6251" height="63.6251" rx="14" fill="#FFC7F3" fill-opacity="0.37"/>
            <rect x="28.2637" y="1.65625" width="62.6251" height="62.6251" rx="13.5" stroke="url(#paint0_linear)"/>
        </g>
        <path d="M63.922 46.587C63.4167 46.2148 63.3632 45.6571 63.3632 45.6571L63.1737 44.4463H57.1349L56.945 45.6566C56.945 45.6566 56.8925 46.2148 56.3872 46.587C55.8824 46.9592 55.484 47.2779 55.8824 47.3309C56.2662 47.3819 59.8878 47.3357 60.1546 47.3309C60.4223 47.3357 64.0429 47.3819 64.4268 47.3309C64.8242 47.2779 64.4263 46.9592 63.922 46.587Z"
              fill="white"/>
        <path d="M53.3525 36.9108C54.9661 36.8991 55.1667 36.5099 55.6924 34.8901C56.6622 32.3339 61.0297 35.5591 58.3229 36.679C55.6162 37.7989 51.739 36.9224 53.3525 36.9108Z"
              fill="white"/>
        <path d="M69.8942 20.0658C69.112 19.4351 67.8147 19.7456 66.9975 20.7596L58.7208 32.5185C57.9036 33.532 57.9079 33.3386 58.6902 33.9688C59.4729 34.5994 59.2844 34.6451 60.1011 33.6311L69.8315 23.0441C70.6492 22.0296 70.6769 20.6964 69.8942 20.0658ZM67.7661 21.4733C67.7661 21.4733 67.6452 21.3324 67.2419 21.0098C67.8463 20.0225 69.0347 20.2038 69.0347 20.2038C67.9075 20.8694 67.7661 21.4733 67.7661 21.4733Z"
              fill="white"/>
        <path d="M73.5645 24.04H69.9253L68.3176 25.7892H72.9819V39.7816H47.3283V25.7892H62.2516L63.4833 24.04H46.7447C46.101 24.04 45.5787 24.5623 45.5787 25.2061V42.1142C45.5787 42.758 46.101 43.2798 46.7447 43.2798H73.5645C74.2087 43.2798 74.7305 42.758 74.7305 42.1142V25.2061C74.7305 24.5619 74.2087 24.04 73.5645 24.04Z"
              fill="white"/>
        <defs>
            <filter id="filter0_b" x="18.7637" y="-7.84375" width="81.6251" height="81.6251"
                    filterUnits="userSpaceOnUse" color-interpolation-filters="sRGB">
                <feFlood flood-opacity="0" result="BackgroundImageFix"/>
                <feGaussianBlur in="BackgroundImage" stdDeviation="4.5"/>
                <feComposite in2="SourceAlpha" operator="in" result="effect1_backgroundBlur"/>
                <feBlend mode="normal" in="SourceGraphic" in2="effect1_backgroundBlur" result="shape"/>
            </filter>
            <linearGradient id="paint0_linear" x1="34.1262" y1="3.46991" x2="98.2268" y2="35.4068"
                            gradientUnits="userSpaceOnUse">
                <stop stop-color="white"/>
                <stop offset="1" stop-color="white" stop-opacity="0.44"/>
                <stop offset="1" stop-color="white" stop-opacity="0.03"/>
            </linearGradient>
        </defs>
    </symbol>

    <symbol id="play" viewBox="0 0 62 62" fill="none" xmlns="http://www.w3.org/2000/svg">
        <g clip-path="url(#clip0)">
            <path d="M31.0519 4.29942C45.8486 4.29942 57.6102 16.061 57.6102 30.8578C57.6102 45.6546 45.8486 57.4161 31.0519 57.4161C16.2551 57.4161 4.49351 45.6546 4.49351 30.8578C4.49351 16.061 16.2551 4.29942 31.0519 4.29942ZM31.0519 0.505371C14.358 0.505371 0.699463 14.1639 0.699463 30.8578C0.699463 47.5516 14.358 61.2102 31.0519 61.2102C47.7457 61.2102 61.4043 47.5516 61.4043 30.8578C61.4043 14.1639 47.7457 0.505371 31.0519 0.505371Z"
                  fill="#373737"/>
            <path d="M23.4637 15.6816V46.034L46.228 30.8578L23.4637 15.6816Z" fill="#373737"/>
        </g>
        <defs>
            <clipPath id="clip0">
                <rect width="60.7048" height="60.7048" fill="white" transform="translate(0.699463 0.505371)"/>
            </clipPath>
        </defs>
    </symbol>

    <symbol id="arrow-up" viewBox="0 0 44 25" fill="none" xmlns="http://www.w3.org/2000/svg">
        <g clip-path="url(#clip0)">
            <path d="M2.50452 23.2276L20.959 2.13672L42.05 23.2276" stroke-width="3.77953"
                  stroke-linejoin="round"/>
        </g>
        <defs>
            <clipPath id="clip0">
                <rect width="44" height="25" fill="white" transform="translate(44 25) rotate(180)"/>
            </clipPath>
        </defs>
    </symbol>

    <symbol id="close" viewBox="0 0 37 37" xmlns="http://www.w3.org/2000/svg">
        <path d="M19.3175 18.4998L25.1634 12.6539C25.3891 12.4282 25.3891 12.0621 25.1634 11.8364C24.9375 11.6106 24.5716 11.6106 24.3457 11.8364L18.4999 17.6822L12.654 11.8363C12.4283 11.6106 12.0623 11.6106 11.8365 11.8363C11.6107 12.0621 11.6107 12.4281 11.8365 12.6539L17.6823 18.4998L11.8364 24.3456C11.6106 24.5715 11.6106 24.9374 11.8364 25.1632C11.9493 25.2761 12.0972 25.3326 12.2452 25.3326C12.3932 25.3326 12.5412 25.2761 12.654 25.1632L18.4999 19.3174L24.3457 25.1632C24.4587 25.2761 24.6066 25.3326 24.7546 25.3326C24.9026 25.3326 25.0505 25.2761 25.1634 25.1632C25.3891 24.9374 25.3891 24.5715 25.1634 24.3456L19.3175 18.4998Z"/>
        <path d="M18.5 4.26367C20.4224 4.26367 22.2866 4.63996 24.0411 5.38198C25.7362 6.09893 27.2588 7.12561 28.5666 8.4334C29.8745 9.74126 30.9011 11.2638 31.6181 12.959C32.3601 14.7134 32.7363 16.5776 32.7363 18.5C32.7363 20.4224 32.3601 22.2866 31.618 24.0411C30.901 25.7362 29.8744 27.2588 28.5665 28.5666C27.2587 29.8745 25.7361 30.9011 24.041 31.6181C22.2866 32.3601 20.4224 32.7363 18.5 32.7363C16.5776 32.7363 14.7134 32.3601 12.959 31.618C11.2638 30.901 9.74126 29.8744 8.4334 28.5665C7.12561 27.2587 6.09893 25.7361 5.38198 24.041C4.63996 22.2866 4.26367 20.4224 4.26367 18.5C4.26367 16.5776 4.63996 14.7134 5.38198 12.959C6.09893 11.2638 7.12561 9.74126 8.4334 8.4334C9.74126 7.12561 11.2638 6.09893 12.959 5.38198C14.7134 4.63996 16.5776 4.26367 18.5 4.26367ZM18.5 3.10742C9.99889 3.10742 3.10742 9.99889 3.10742 18.5C3.10742 27.0011 9.99889 33.8926 18.5 33.8926C27.0011 33.8926 33.8926 27.0011 33.8926 18.5C33.8926 9.99889 27.0011 3.10742 18.5 3.10742Z"/>
    </symbol>

    <symbol id="error-popup" viewBox="0 0 45 45" fill="none" xmlns="http://www.w3.org/2000/svg">
        <path d="M22.5 42.1875C33.3731 42.1875 42.1875 33.3731 42.1875 22.5C42.1875 11.6269 33.3731 2.8125 22.5 2.8125C11.6269 2.8125 2.8125 11.6269 2.8125 22.5C2.8125 33.3731 11.6269 42.1875 22.5 42.1875Z"
              fill="#F44336"/>
        <path d="M30.3677 34.4251L34.3452 30.4476L14.4578 10.5603L10.4804 14.5377L30.3677 34.4251Z" fill="white"/>
        <path d="M10.5006 30.4277L14.478 34.4052L34.3654 14.5178L30.3879 10.5403L10.5006 30.4277Z" fill="white"/>
    </symbol>


    <symbol id="yes-popup" viewBox="0 0 130 116" fill="none" xmlns="http://www.w3.org/2000/svg">
        <g clip-path="url(#clip0)">
            <rect y="46.9281" width="83.0324" height="83.0324" rx="11" transform="rotate(-34.4147 0 46.9281)"
                  fill="#FE6FDF"/>
            <g filter="url(#filter0_b)">
                <rect x="39.4937" y="1.64575" width="90.5063" height="90.5063" rx="14" fill="#FFC7F3"
                      fill-opacity="0.37"/>
                <rect x="39.9937" y="2.14575" width="89.5063" height="89.5063" rx="13.5" stroke="url(#paint0_linear)"/>
            </g>
            <path d="M108.384 31.0267C106.298 28.9411 102.661 28.9411 100.577 31.0267L82.3928 49.2097L75.4227 42.2382C73.3345 40.1499 69.7003 40.1527 67.6148 42.2382C65.4631 44.3899 65.4617 47.8943 67.6148 50.0447L78.4896 60.9194C79.533 61.9629 80.9188 62.5371 82.3928 62.5371C83.8683 62.5371 85.254 61.9629 86.2961 60.9194L108.382 38.8359C109.426 37.7925 110 36.4054 110 34.9313C110 33.4572 109.426 32.0701 108.384 31.0267ZM106.431 36.8843L84.3445 58.9678C83.301 60.0113 81.4846 60.0113 80.4412 58.9678L69.5665 48.0944C68.4913 47.0179 68.4913 45.2664 69.5665 44.1898C70.0882 43.6681 70.781 43.381 71.5195 43.381C72.2565 43.381 72.9494 43.6681 73.4711 44.1898L81.417 52.1357C81.9567 52.6768 82.829 52.6768 83.3686 52.1357L102.525 32.9797C103.568 31.9362 105.387 31.9362 106.431 32.9797C106.951 33.5 107.24 34.1943 107.24 34.9313C107.24 35.6683 106.951 36.3626 106.431 36.8843Z"
                  fill="white"/>
        </g>
        <defs>
            <filter id="filter0_b" x="30.4937" y="-7.35425" width="108.506" height="108.506"
                    filterUnits="userSpaceOnUse" color-interpolation-filters="sRGB">
                <feFlood flood-opacity="0" result="BackgroundImageFix"/>
                <feGaussianBlur in="BackgroundImage" stdDeviation="4.5"/>
                <feComposite in2="SourceAlpha" operator="in" result="effect1_backgroundBlur"/>
                <feBlend mode="normal" in="SourceGraphic" in2="effect1_backgroundBlur" result="shape"/>
            </filter>
            <linearGradient id="paint0_linear" x1="48.5443" y1="4.93692" x2="139.727" y2="50.367"
                            gradientUnits="userSpaceOnUse">
                <stop stop-color="white"/>
                <stop offset="1" stop-color="white" stop-opacity="0.44"/>
                <stop offset="1" stop-color="white" stop-opacity="0.03"/>
            </linearGradient>
            <clipPath id="clip0">
                <rect width="130" height="115.427" fill="white"/>
            </clipPath>
        </defs>
    </symbol>
</svg>

